<mxfile host="Electron" agent="Mozilla/5.0 (Windows NT 10.0; Win64; x64) AppleWebKit/537.36 (KHTML, like Gecko) draw.io/24.7.17 Chrome/128.0.6613.36 Electron/32.0.1 Safari/537.36" version="24.7.17" pages="2">
  <diagram name="显存" id="1g6co8j1CMXONCvSvQXa">
    <mxGraphModel dx="618" dy="365" grid="1" gridSize="10" guides="1" tooltips="1" connect="1" arrows="1" fold="1" page="1" pageScale="1" pageWidth="827" pageHeight="1169" math="0" shadow="0">
      <root>
        <mxCell id="0" />
        <mxCell id="1" parent="0" />
        <mxCell id="0m2bzIiXhMGS_HH6TtxB-2" value="Screen 0" style="rounded=0;whiteSpace=wrap;html=1;labelBackgroundColor=none;fillColor=#182E3E;strokeColor=#FFFFFF;fontColor=#FFFFFF;" vertex="1" parent="1">
          <mxGeometry x="280" y="80" width="80" height="40" as="geometry" />
        </mxCell>
        <mxCell id="0m2bzIiXhMGS_HH6TtxB-3" value="" style="endArrow=none;dashed=1;html=1;dashPattern=1 3;strokeWidth=2;rounded=0;strokeColor=#23445D;" edge="1" parent="1">
          <mxGeometry width="50" height="50" relative="1" as="geometry">
            <mxPoint x="280" y="140" as="sourcePoint" />
            <mxPoint x="280" y="60" as="targetPoint" />
          </mxGeometry>
        </mxCell>
        <mxCell id="0m2bzIiXhMGS_HH6TtxB-4" value="" style="endArrow=none;dashed=1;html=1;dashPattern=1 3;strokeWidth=2;rounded=0;strokeColor=#23445D;" edge="1" parent="1">
          <mxGeometry width="50" height="50" relative="1" as="geometry">
            <mxPoint x="360" y="140" as="sourcePoint" />
            <mxPoint x="360" y="60" as="targetPoint" />
          </mxGeometry>
        </mxCell>
        <mxCell id="0m2bzIiXhMGS_HH6TtxB-5" value="0xB8000" style="text;html=1;align=left;verticalAlign=middle;whiteSpace=wrap;rounded=0;fontColor=#FFFFFF;fontSize=9;" vertex="1" parent="1">
          <mxGeometry x="280" y="120" width="80" height="20" as="geometry" />
        </mxCell>
        <mxCell id="0m2bzIiXhMGS_HH6TtxB-6" value="" style="shape=curlyBracket;whiteSpace=wrap;html=1;rounded=1;flipH=1;labelPosition=right;verticalLabelPosition=middle;align=left;verticalAlign=middle;strokeColor=#FFFFFF;fontColor=#FFFFFF;fillColor=#182E3E;rotation=-90;size=0.5;" vertex="1" parent="1">
          <mxGeometry x="310" y="30" width="20" height="80" as="geometry" />
        </mxCell>
        <mxCell id="0m2bzIiXhMGS_HH6TtxB-7" value="4000 bytes" style="text;html=1;align=center;verticalAlign=middle;whiteSpace=wrap;rounded=0;fontColor=#FFFFFF;fontSize=9;" vertex="1" parent="1">
          <mxGeometry x="280" y="40" width="80" height="20" as="geometry" />
        </mxCell>
        <mxCell id="0m2bzIiXhMGS_HH6TtxB-8" value="&lt;div&gt;Text Mode&lt;br&gt;&lt;/div&gt;80x25" style="text;html=1;align=center;verticalAlign=middle;whiteSpace=wrap;rounded=0;fontColor=#FFFFFF;fontSize=9;" vertex="1" parent="1">
          <mxGeometry x="200" y="80" width="80" height="40" as="geometry" />
        </mxCell>
        <mxCell id="0m2bzIiXhMGS_HH6TtxB-9" value="Screen 1" style="rounded=0;whiteSpace=wrap;html=1;labelBackgroundColor=none;fillColor=#182E3E;strokeColor=#FFFFFF;fontColor=#FFFFFF;" vertex="1" parent="1">
          <mxGeometry x="360" y="80" width="80" height="40" as="geometry" />
        </mxCell>
        <mxCell id="0m2bzIiXhMGS_HH6TtxB-10" value="" style="endArrow=none;dashed=1;html=1;dashPattern=1 3;strokeWidth=2;rounded=0;strokeColor=#23445D;" edge="1" parent="1">
          <mxGeometry width="50" height="50" relative="1" as="geometry">
            <mxPoint x="440" y="140" as="sourcePoint" />
            <mxPoint x="440" y="60" as="targetPoint" />
          </mxGeometry>
        </mxCell>
        <mxCell id="0m2bzIiXhMGS_HH6TtxB-11" value="..." style="rounded=0;whiteSpace=wrap;html=1;labelBackgroundColor=none;fillColor=#182E3E;strokeColor=#FFFFFF;fontColor=#FFFFFF;" vertex="1" parent="1">
          <mxGeometry x="440" y="80" width="80" height="40" as="geometry" />
        </mxCell>
        <mxCell id="0m2bzIiXhMGS_HH6TtxB-12" value="Screen 7" style="rounded=0;whiteSpace=wrap;html=1;labelBackgroundColor=none;fillColor=#182E3E;strokeColor=#FFFFFF;fontColor=#FFFFFF;" vertex="1" parent="1">
          <mxGeometry x="520" y="80" width="80" height="40" as="geometry" />
        </mxCell>
        <mxCell id="0m2bzIiXhMGS_HH6TtxB-13" value="" style="shape=curlyBracket;whiteSpace=wrap;html=1;rounded=1;flipH=1;labelPosition=right;verticalLabelPosition=middle;align=left;verticalAlign=middle;strokeColor=#FFFFFF;fontColor=#FFFFFF;fillColor=#182E3E;rotation=-90;size=0.5;" vertex="1" parent="1">
          <mxGeometry x="390" y="30" width="20" height="80" as="geometry" />
        </mxCell>
        <mxCell id="0m2bzIiXhMGS_HH6TtxB-14" value="4000 bytes" style="text;html=1;align=center;verticalAlign=middle;whiteSpace=wrap;rounded=0;fontColor=#FFFFFF;fontSize=9;" vertex="1" parent="1">
          <mxGeometry x="360" y="40" width="80" height="20" as="geometry" />
        </mxCell>
        <mxCell id="0m2bzIiXhMGS_HH6TtxB-15" value="" style="shape=curlyBracket;whiteSpace=wrap;html=1;rounded=1;flipH=1;labelPosition=right;verticalLabelPosition=middle;align=left;verticalAlign=middle;strokeColor=#FFFFFF;fontColor=#FFFFFF;fillColor=#182E3E;rotation=-90;size=0.5;" vertex="1" parent="1">
          <mxGeometry x="550" y="30" width="20" height="80" as="geometry" />
        </mxCell>
        <mxCell id="0m2bzIiXhMGS_HH6TtxB-16" value="4000 bytes" style="text;html=1;align=center;verticalAlign=middle;whiteSpace=wrap;rounded=0;fontColor=#FFFFFF;fontSize=9;" vertex="1" parent="1">
          <mxGeometry x="520" y="40" width="80" height="20" as="geometry" />
        </mxCell>
        <mxCell id="0m2bzIiXhMGS_HH6TtxB-17" value="" style="endArrow=none;dashed=1;html=1;dashPattern=1 3;strokeWidth=2;rounded=0;strokeColor=#23445D;" edge="1" parent="1">
          <mxGeometry width="50" height="50" relative="1" as="geometry">
            <mxPoint x="600" y="140" as="sourcePoint" />
            <mxPoint x="600" y="60" as="targetPoint" />
          </mxGeometry>
        </mxCell>
        <mxCell id="0m2bzIiXhMGS_HH6TtxB-18" value="0xC0000" style="text;html=1;align=right;verticalAlign=middle;whiteSpace=wrap;rounded=0;fontColor=#FFFFFF;fontSize=9;" vertex="1" parent="1">
          <mxGeometry x="520" y="120" width="80" height="20" as="geometry" />
        </mxCell>
      </root>
    </mxGraphModel>
  </diagram>
  <diagram id="mnGaGx4yb7shmdxKr_cG" name="字符">
    <mxGraphModel dx="1050" dy="621" grid="1" gridSize="10" guides="1" tooltips="1" connect="1" arrows="1" fold="1" page="1" pageScale="1" pageWidth="827" pageHeight="1169" math="0" shadow="0">
      <root>
        <mxCell id="0" />
        <mxCell id="1" parent="0" />
        <mxCell id="dj3PNfdWHso2-Vq5DA1j-17" value="&lt;div class=&quot;lake-content&quot;&gt;&lt;table class=&quot;ne-table&quot; style=&quot;table-layout: fixed; border-collapse: collapse; border: 1px solid #d9d9d9; width: 750px&quot;&gt;&lt;tbody&gt;&lt;tr style=&quot;height: 33px&quot;&gt;&lt;td width=&quot;150&quot; style=&quot;border: 1px solid #d9d9d9&quot;&gt;&lt;p id=&quot;ua5b8265d&quot; class=&quot;ne-p&quot; style=&quot;margin: 0px; padding: 0px; min-height: 24px;&quot;&gt;&lt;span class=&quot;ne-text&quot; style=&quot;font-size: 16px;&quot;&gt;Dec&lt;/span&gt;&lt;/p&gt;&lt;/td&gt;&lt;td width=&quot;150&quot; style=&quot;border: 1px solid #d9d9d9&quot;&gt;&lt;p id=&quot;u8f85e0fc&quot; class=&quot;ne-p&quot; style=&quot;margin: 0px; padding: 0px; min-height: 24px;&quot;&gt;&lt;span class=&quot;ne-text&quot; style=&quot;font-size: 16px;&quot;&gt;Hex&lt;/span&gt;&lt;/p&gt;&lt;/td&gt;&lt;td width=&quot;150&quot; style=&quot;border: 1px solid #d9d9d9&quot;&gt;&lt;p id=&quot;u9eacd2d7&quot; class=&quot;ne-p&quot; style=&quot;margin: 0px; padding: 0px; min-height: 24px;&quot;&gt;&lt;span class=&quot;ne-text&quot; style=&quot;font-size: 16px;&quot;&gt;Binary&lt;/span&gt;&lt;/p&gt;&lt;/td&gt;&lt;td width=&quot;300&quot; colspan=&quot;2&quot; style=&quot;border: 1px solid #d9d9d9&quot;&gt;&lt;p id=&quot;ubf53fa54&quot; class=&quot;ne-p&quot; style=&quot;margin: 0px; padding: 0px; min-height: 24px;&quot;&gt;&lt;span class=&quot;ne-text&quot; style=&quot;font-size: 16px;&quot;&gt;Color&lt;/span&gt;&lt;/p&gt;&lt;/td&gt;&lt;/tr&gt;&lt;tr style=&quot;height: 33px&quot;&gt;&lt;td width=&quot;150&quot; style=&quot;border: 1px solid #d9d9d9&quot;&gt;&lt;p id=&quot;ub775fa09&quot; class=&quot;ne-p&quot; style=&quot;margin: 0; padding: 0; min-height: 24px&quot;&gt;&lt;span class=&quot;ne-text&quot; style=&quot;font-size: 16px;&quot;&gt;0&lt;/span&gt;&lt;/p&gt;&lt;/td&gt;&lt;td width=&quot;150&quot; style=&quot;border: 1px solid #d9d9d9&quot;&gt;&lt;p id=&quot;u97ae40b4&quot; class=&quot;ne-p&quot; style=&quot;margin: 0; padding: 0; min-height: 24px&quot;&gt;&lt;span class=&quot;ne-text&quot; style=&quot;font-size: 16px;&quot;&gt;0&lt;/span&gt;&lt;/p&gt;&lt;/td&gt;&lt;td width=&quot;150&quot; style=&quot;border: 1px solid #d9d9d9&quot;&gt;&lt;p id=&quot;uf607a18b&quot; class=&quot;ne-p&quot; style=&quot;margin: 0; padding: 0; min-height: 24px&quot;&gt;&lt;span class=&quot;ne-text&quot; style=&quot;font-size: 16px;&quot;&gt;0000&lt;/span&gt;&lt;/p&gt;&lt;/td&gt;&lt;td width=&quot;150&quot; style=&quot;border: 1px solid #d9d9d9&quot;&gt;&lt;p id=&quot;u37e8799e&quot; class=&quot;ne-p&quot; style=&quot;margin: 0; padding: 0; min-height: 24px&quot;&gt;&lt;span class=&quot;ne-text&quot; style=&quot;font-size: 16px;&quot;&gt;Black&lt;/span&gt;&lt;/p&gt;&lt;/td&gt;&lt;td width=&quot;150&quot; style=&quot;border: 1px solid #d9d9d9; background-color: rgb(0, 0, 0)&quot;&gt;&lt;/td&gt;&lt;/tr&gt;&lt;tr style=&quot;height: 33px&quot;&gt;&lt;td width=&quot;150&quot; style=&quot;border: 1px solid #d9d9d9&quot;&gt;&lt;p id=&quot;u6992e08a&quot; class=&quot;ne-p&quot; style=&quot;margin: 0; padding: 0; min-height: 24px&quot;&gt;&lt;span class=&quot;ne-text&quot; style=&quot;font-size: 16px;&quot;&gt;1&lt;/span&gt;&lt;/p&gt;&lt;/td&gt;&lt;td width=&quot;150&quot; style=&quot;border: 1px solid #d9d9d9&quot;&gt;&lt;p id=&quot;u7201e5e4&quot; class=&quot;ne-p&quot; style=&quot;margin: 0; padding: 0; min-height: 24px&quot;&gt;&lt;span class=&quot;ne-text&quot; style=&quot;font-size: 16px;&quot;&gt;1&lt;/span&gt;&lt;/p&gt;&lt;/td&gt;&lt;td width=&quot;150&quot; style=&quot;border: 1px solid #d9d9d9&quot;&gt;&lt;p id=&quot;u4c5fde1c&quot; class=&quot;ne-p&quot; style=&quot;margin: 0; padding: 0; min-height: 24px&quot;&gt;&lt;span class=&quot;ne-text&quot; style=&quot;font-size: 16px;&quot;&gt;0001&lt;/span&gt;&lt;/p&gt;&lt;/td&gt;&lt;td width=&quot;150&quot; style=&quot;border: 1px solid #d9d9d9&quot;&gt;&lt;p id=&quot;uad1f1546&quot; class=&quot;ne-p&quot; style=&quot;margin: 0; padding: 0; min-height: 24px&quot;&gt;&lt;span class=&quot;ne-text&quot; style=&quot;font-size: 16px;&quot;&gt;Blue&lt;/span&gt;&lt;/p&gt;&lt;/td&gt;&lt;td width=&quot;150&quot; style=&quot;border: 1px solid #d9d9d9; background-color: rgb(0, 0, 170)&quot;&gt;&lt;/td&gt;&lt;/tr&gt;&lt;tr style=&quot;height: 33px&quot;&gt;&lt;td width=&quot;150&quot; style=&quot;border: 1px solid #d9d9d9&quot;&gt;&lt;p id=&quot;uf2139bfd&quot; class=&quot;ne-p&quot; style=&quot;margin: 0; padding: 0; min-height: 24px&quot;&gt;&lt;span class=&quot;ne-text&quot; style=&quot;font-size: 16px;&quot;&gt;2&lt;/span&gt;&lt;/p&gt;&lt;/td&gt;&lt;td width=&quot;150&quot; style=&quot;border: 1px solid #d9d9d9&quot;&gt;&lt;p id=&quot;uc9241ade&quot; class=&quot;ne-p&quot; style=&quot;margin: 0; padding: 0; min-height: 24px&quot;&gt;&lt;span class=&quot;ne-text&quot; style=&quot;font-size: 16px;&quot;&gt;2&lt;/span&gt;&lt;/p&gt;&lt;/td&gt;&lt;td width=&quot;150&quot; style=&quot;border: 1px solid #d9d9d9&quot;&gt;&lt;p id=&quot;ud5bd0bf2&quot; class=&quot;ne-p&quot; style=&quot;margin: 0; padding: 0; min-height: 24px&quot;&gt;&lt;span class=&quot;ne-text&quot; style=&quot;font-size: 16px;&quot;&gt;0010&lt;/span&gt;&lt;/p&gt;&lt;/td&gt;&lt;td width=&quot;150&quot; style=&quot;border: 1px solid #d9d9d9&quot;&gt;&lt;p id=&quot;u22240bba&quot; class=&quot;ne-p&quot; style=&quot;margin: 0; padding: 0; min-height: 24px&quot;&gt;&lt;span class=&quot;ne-text&quot; style=&quot;font-size: 16px;&quot;&gt;Green&lt;/span&gt;&lt;/p&gt;&lt;/td&gt;&lt;td width=&quot;150&quot; style=&quot;border: 1px solid #d9d9d9; background-color: rgb(0, 170, 0)&quot;&gt;&lt;/td&gt;&lt;/tr&gt;&lt;tr style=&quot;height: 33px&quot;&gt;&lt;td width=&quot;150&quot; style=&quot;border: 1px solid #d9d9d9&quot;&gt;&lt;p id=&quot;ufd7480b6&quot; class=&quot;ne-p&quot; style=&quot;margin: 0; padding: 0; min-height: 24px&quot;&gt;&lt;span class=&quot;ne-text&quot; style=&quot;font-size: 16px;&quot;&gt;3&lt;/span&gt;&lt;/p&gt;&lt;/td&gt;&lt;td width=&quot;150&quot; style=&quot;border: 1px solid #d9d9d9&quot;&gt;&lt;p id=&quot;u217c440b&quot; class=&quot;ne-p&quot; style=&quot;margin: 0; padding: 0; min-height: 24px&quot;&gt;&lt;span class=&quot;ne-text&quot; style=&quot;font-size: 16px;&quot;&gt;3&lt;/span&gt;&lt;/p&gt;&lt;/td&gt;&lt;td width=&quot;150&quot; style=&quot;border: 1px solid #d9d9d9&quot;&gt;&lt;p id=&quot;u02d1e1f3&quot; class=&quot;ne-p&quot; style=&quot;margin: 0; padding: 0; min-height: 24px&quot;&gt;&lt;span class=&quot;ne-text&quot; style=&quot;font-size: 16px;&quot;&gt;0011&lt;/span&gt;&lt;/p&gt;&lt;/td&gt;&lt;td width=&quot;150&quot; style=&quot;border: 1px solid #d9d9d9&quot;&gt;&lt;p id=&quot;ud0620ee3&quot; class=&quot;ne-p&quot; style=&quot;margin: 0; padding: 0; min-height: 24px&quot;&gt;&lt;span class=&quot;ne-text&quot; style=&quot;font-size: 16px;&quot;&gt;Cyan&lt;/span&gt;&lt;/p&gt;&lt;/td&gt;&lt;td width=&quot;150&quot; style=&quot;border: 1px solid #d9d9d9; background-color: rgb(0, 170, 170)&quot;&gt;&lt;/td&gt;&lt;/tr&gt;&lt;tr style=&quot;height: 33px&quot;&gt;&lt;td width=&quot;150&quot; style=&quot;border: 1px solid #d9d9d9&quot;&gt;&lt;p id=&quot;u3f46c58b&quot; class=&quot;ne-p&quot; style=&quot;margin: 0; padding: 0; min-height: 24px&quot;&gt;&lt;span class=&quot;ne-text&quot; style=&quot;font-size: 16px;&quot;&gt;4&lt;/span&gt;&lt;/p&gt;&lt;/td&gt;&lt;td width=&quot;150&quot; style=&quot;border: 1px solid #d9d9d9&quot;&gt;&lt;p id=&quot;ufc814a3b&quot; class=&quot;ne-p&quot; style=&quot;margin: 0; padding: 0; min-height: 24px&quot;&gt;&lt;span class=&quot;ne-text&quot; style=&quot;font-size: 16px;&quot;&gt;4&lt;/span&gt;&lt;/p&gt;&lt;/td&gt;&lt;td width=&quot;150&quot; style=&quot;border: 1px solid #d9d9d9&quot;&gt;&lt;p id=&quot;ub8c668e6&quot; class=&quot;ne-p&quot; style=&quot;margin: 0; padding: 0; min-height: 24px&quot;&gt;&lt;span class=&quot;ne-text&quot; style=&quot;font-size: 16px;&quot;&gt;0100&lt;/span&gt;&lt;/p&gt;&lt;/td&gt;&lt;td width=&quot;150&quot; style=&quot;border: 1px solid #d9d9d9&quot;&gt;&lt;p id=&quot;uf622df3e&quot; class=&quot;ne-p&quot; style=&quot;margin: 0; padding: 0; min-height: 24px&quot;&gt;&lt;span class=&quot;ne-text&quot; style=&quot;font-size: 16px;&quot;&gt;Red&lt;/span&gt;&lt;/p&gt;&lt;/td&gt;&lt;td width=&quot;150&quot; style=&quot;border: 1px solid #d9d9d9; background-color: rgb(170, 0, 0)&quot;&gt;&lt;/td&gt;&lt;/tr&gt;&lt;tr style=&quot;height: 33px&quot;&gt;&lt;td width=&quot;150&quot; style=&quot;border: 1px solid #d9d9d9&quot;&gt;&lt;p id=&quot;u6b824339&quot; class=&quot;ne-p&quot; style=&quot;margin: 0; padding: 0; min-height: 24px&quot;&gt;&lt;span class=&quot;ne-text&quot; style=&quot;font-size: 16px;&quot;&gt;5&lt;/span&gt;&lt;/p&gt;&lt;/td&gt;&lt;td width=&quot;150&quot; style=&quot;border: 1px solid #d9d9d9&quot;&gt;&lt;p id=&quot;u4e2024d8&quot; class=&quot;ne-p&quot; style=&quot;margin: 0; padding: 0; min-height: 24px&quot;&gt;&lt;span class=&quot;ne-text&quot; style=&quot;font-size: 16px;&quot;&gt;5&lt;/span&gt;&lt;/p&gt;&lt;/td&gt;&lt;td width=&quot;150&quot; style=&quot;border: 1px solid #d9d9d9&quot;&gt;&lt;p id=&quot;u68c9c937&quot; class=&quot;ne-p&quot; style=&quot;margin: 0; padding: 0; min-height: 24px&quot;&gt;&lt;span class=&quot;ne-text&quot; style=&quot;font-size: 16px;&quot;&gt;0101&lt;/span&gt;&lt;/p&gt;&lt;/td&gt;&lt;td width=&quot;150&quot; style=&quot;border: 1px solid #d9d9d9&quot;&gt;&lt;p id=&quot;ud732e30d&quot; class=&quot;ne-p&quot; style=&quot;margin: 0; padding: 0; min-height: 24px&quot;&gt;&lt;span class=&quot;ne-text&quot; style=&quot;font-size: 16px;&quot;&gt;Magenta&lt;/span&gt;&lt;/p&gt;&lt;/td&gt;&lt;td width=&quot;150&quot; style=&quot;border: 1px solid #d9d9d9; background-color: rgb(170, 0, 170)&quot;&gt;&lt;/td&gt;&lt;/tr&gt;&lt;tr style=&quot;height: 33px&quot;&gt;&lt;td width=&quot;150&quot; style=&quot;border: 1px solid #d9d9d9&quot;&gt;&lt;p id=&quot;uf0655b11&quot; class=&quot;ne-p&quot; style=&quot;margin: 0; padding: 0; min-height: 24px&quot;&gt;&lt;span class=&quot;ne-text&quot; style=&quot;font-size: 16px;&quot;&gt;6&lt;/span&gt;&lt;/p&gt;&lt;/td&gt;&lt;td width=&quot;150&quot; style=&quot;border: 1px solid #d9d9d9&quot;&gt;&lt;p id=&quot;ue55d7e9c&quot; class=&quot;ne-p&quot; style=&quot;margin: 0; padding: 0; min-height: 24px&quot;&gt;&lt;span class=&quot;ne-text&quot; style=&quot;font-size: 16px;&quot;&gt;6&lt;/span&gt;&lt;/p&gt;&lt;/td&gt;&lt;td width=&quot;150&quot; style=&quot;border: 1px solid #d9d9d9&quot;&gt;&lt;p id=&quot;u6e4cef25&quot; class=&quot;ne-p&quot; style=&quot;margin: 0; padding: 0; min-height: 24px&quot;&gt;&lt;span class=&quot;ne-text&quot; style=&quot;font-size: 16px;&quot;&gt;0110&lt;/span&gt;&lt;/p&gt;&lt;/td&gt;&lt;td width=&quot;150&quot; style=&quot;border: 1px solid #d9d9d9&quot;&gt;&lt;p id=&quot;u5716fac4&quot; class=&quot;ne-p&quot; style=&quot;margin: 0; padding: 0; min-height: 24px&quot;&gt;&lt;span class=&quot;ne-text&quot; style=&quot;font-size: 16px;&quot;&gt;Brown&lt;/span&gt;&lt;/p&gt;&lt;/td&gt;&lt;td width=&quot;150&quot; style=&quot;border: 1px solid #d9d9d9; background-color: rgb(170, 85, 0)&quot;&gt;&lt;/td&gt;&lt;/tr&gt;&lt;tr style=&quot;height: 33px&quot;&gt;&lt;td width=&quot;150&quot; style=&quot;border: 1px solid #d9d9d9&quot;&gt;&lt;p id=&quot;uaa3a1f47&quot; class=&quot;ne-p&quot; style=&quot;margin: 0; padding: 0; min-height: 24px&quot;&gt;&lt;span class=&quot;ne-text&quot; style=&quot;font-size: 16px;&quot;&gt;7&lt;/span&gt;&lt;/p&gt;&lt;/td&gt;&lt;td width=&quot;150&quot; style=&quot;border: 1px solid #d9d9d9&quot;&gt;&lt;p id=&quot;u71ed58da&quot; class=&quot;ne-p&quot; style=&quot;margin: 0; padding: 0; min-height: 24px&quot;&gt;&lt;span class=&quot;ne-text&quot; style=&quot;font-size: 16px;&quot;&gt;7&lt;/span&gt;&lt;/p&gt;&lt;/td&gt;&lt;td width=&quot;150&quot; style=&quot;border: 1px solid #d9d9d9&quot;&gt;&lt;p id=&quot;u49f800de&quot; class=&quot;ne-p&quot; style=&quot;margin: 0; padding: 0; min-height: 24px&quot;&gt;&lt;span class=&quot;ne-text&quot; style=&quot;font-size: 16px;&quot;&gt;0111&lt;/span&gt;&lt;/p&gt;&lt;/td&gt;&lt;td width=&quot;150&quot; style=&quot;border: 1px solid #d9d9d9&quot;&gt;&lt;p id=&quot;u5af6f0b7&quot; class=&quot;ne-p&quot; style=&quot;margin: 0; padding: 0; min-height: 24px&quot;&gt;&lt;span class=&quot;ne-text&quot; style=&quot;font-size: 16px;&quot;&gt;Light Gray&lt;/span&gt;&lt;/p&gt;&lt;/td&gt;&lt;td width=&quot;150&quot; style=&quot;border: 1px solid #d9d9d9; background-color: rgb(170, 170, 170)&quot;&gt;&lt;/td&gt;&lt;/tr&gt;&lt;tr style=&quot;height: 33px&quot;&gt;&lt;td width=&quot;150&quot; style=&quot;border: 1px solid #d9d9d9&quot;&gt;&lt;p id=&quot;uf8e02143&quot; class=&quot;ne-p&quot; style=&quot;margin: 0; padding: 0; min-height: 24px&quot;&gt;&lt;span class=&quot;ne-text&quot; style=&quot;font-size: 16px;&quot;&gt;8&lt;/span&gt;&lt;/p&gt;&lt;/td&gt;&lt;td width=&quot;150&quot; style=&quot;border: 1px solid #d9d9d9&quot;&gt;&lt;p id=&quot;ua627a1fd&quot; class=&quot;ne-p&quot; style=&quot;margin: 0; padding: 0; min-height: 24px&quot;&gt;&lt;span class=&quot;ne-text&quot; style=&quot;font-size: 16px;&quot;&gt;8&lt;/span&gt;&lt;/p&gt;&lt;/td&gt;&lt;td width=&quot;150&quot; style=&quot;border: 1px solid #d9d9d9&quot;&gt;&lt;p id=&quot;u6f4f7762&quot; class=&quot;ne-p&quot; style=&quot;margin: 0; padding: 0; min-height: 24px&quot;&gt;&lt;span class=&quot;ne-text&quot; style=&quot;font-size: 16px;&quot;&gt;1000&lt;/span&gt;&lt;/p&gt;&lt;/td&gt;&lt;td width=&quot;150&quot; style=&quot;border: 1px solid #d9d9d9&quot;&gt;&lt;p id=&quot;ufa4d03d0&quot; class=&quot;ne-p&quot; style=&quot;margin: 0; padding: 0; min-height: 24px&quot;&gt;&lt;span class=&quot;ne-text&quot; style=&quot;font-size: 16px;&quot;&gt;Dark Gray&lt;/span&gt;&lt;/p&gt;&lt;/td&gt;&lt;td width=&quot;150&quot; style=&quot;border: 1px solid #d9d9d9; background-color: rgb(85, 85, 85)&quot;&gt;&lt;/td&gt;&lt;/tr&gt;&lt;tr style=&quot;height: 33px&quot;&gt;&lt;td width=&quot;150&quot; style=&quot;border: 1px solid #d9d9d9&quot;&gt;&lt;p id=&quot;u2b2a0ecd&quot; class=&quot;ne-p&quot; style=&quot;margin: 0; padding: 0; min-height: 24px&quot;&gt;&lt;span class=&quot;ne-text&quot; style=&quot;font-size: 16px;&quot;&gt;9&lt;/span&gt;&lt;/p&gt;&lt;/td&gt;&lt;td width=&quot;150&quot; style=&quot;border: 1px solid #d9d9d9&quot;&gt;&lt;p id=&quot;u540a5a9d&quot; class=&quot;ne-p&quot; style=&quot;margin: 0; padding: 0; min-height: 24px&quot;&gt;&lt;span class=&quot;ne-text&quot; style=&quot;font-size: 16px;&quot;&gt;9&lt;/span&gt;&lt;/p&gt;&lt;/td&gt;&lt;td width=&quot;150&quot; style=&quot;border: 1px solid #d9d9d9&quot;&gt;&lt;p id=&quot;u5657f000&quot; class=&quot;ne-p&quot; style=&quot;margin: 0; padding: 0; min-height: 24px&quot;&gt;&lt;span class=&quot;ne-text&quot; style=&quot;font-size: 16px;&quot;&gt;1001&lt;/span&gt;&lt;/p&gt;&lt;/td&gt;&lt;td width=&quot;150&quot; style=&quot;border: 1px solid #d9d9d9&quot;&gt;&lt;p id=&quot;u5ecef5a0&quot; class=&quot;ne-p&quot; style=&quot;margin: 0; padding: 0; min-height: 24px&quot;&gt;&lt;span class=&quot;ne-text&quot; style=&quot;font-size: 16px;&quot;&gt;Light Blue&lt;/span&gt;&lt;/p&gt;&lt;/td&gt;&lt;td width=&quot;150&quot; style=&quot;border: 1px solid #d9d9d9; background-color: rgb(85, 85, 255)&quot;&gt;&lt;/td&gt;&lt;/tr&gt;&lt;tr style=&quot;height: 33px&quot;&gt;&lt;td width=&quot;150&quot; style=&quot;border: 1px solid #d9d9d9&quot;&gt;&lt;p id=&quot;u6784cee4&quot; class=&quot;ne-p&quot; style=&quot;margin: 0; padding: 0; min-height: 24px&quot;&gt;&lt;span class=&quot;ne-text&quot; style=&quot;font-size: 16px;&quot;&gt;10&lt;/span&gt;&lt;/p&gt;&lt;/td&gt;&lt;td width=&quot;150&quot; style=&quot;border: 1px solid #d9d9d9&quot;&gt;&lt;p id=&quot;u31f02710&quot; class=&quot;ne-p&quot; style=&quot;margin: 0; padding: 0; min-height: 24px&quot;&gt;&lt;span class=&quot;ne-text&quot; style=&quot;font-size: 16px;&quot;&gt;A&lt;/span&gt;&lt;/p&gt;&lt;/td&gt;&lt;td width=&quot;150&quot; style=&quot;border: 1px solid #d9d9d9&quot;&gt;&lt;p id=&quot;u73f1973b&quot; class=&quot;ne-p&quot; style=&quot;margin: 0; padding: 0; min-height: 24px&quot;&gt;&lt;span class=&quot;ne-text&quot; style=&quot;font-size: 16px;&quot;&gt;1010&lt;/span&gt;&lt;/p&gt;&lt;/td&gt;&lt;td width=&quot;150&quot; style=&quot;border: 1px solid #d9d9d9&quot;&gt;&lt;p id=&quot;u11c8dc16&quot; class=&quot;ne-p&quot; style=&quot;margin: 0; padding: 0; min-height: 24px&quot;&gt;&lt;span class=&quot;ne-text&quot; style=&quot;font-size: 16px;&quot;&gt;Light Green&lt;/span&gt;&lt;/p&gt;&lt;/td&gt;&lt;td width=&quot;150&quot; style=&quot;border: 1px solid #d9d9d9; background-color: rgb(85, 255, 85)&quot;&gt;&lt;/td&gt;&lt;/tr&gt;&lt;tr style=&quot;height: 33px&quot;&gt;&lt;td width=&quot;150&quot; style=&quot;border: 1px solid #d9d9d9&quot;&gt;&lt;p id=&quot;u132f988a&quot; class=&quot;ne-p&quot; style=&quot;margin: 0; padding: 0; min-height: 24px&quot;&gt;&lt;span class=&quot;ne-text&quot; style=&quot;font-size: 16px;&quot;&gt;11&lt;/span&gt;&lt;/p&gt;&lt;/td&gt;&lt;td width=&quot;150&quot; style=&quot;border: 1px solid #d9d9d9&quot;&gt;&lt;p id=&quot;u7b447c73&quot; class=&quot;ne-p&quot; style=&quot;margin: 0; padding: 0; min-height: 24px&quot;&gt;&lt;span class=&quot;ne-text&quot; style=&quot;font-size: 16px;&quot;&gt;B&lt;/span&gt;&lt;/p&gt;&lt;/td&gt;&lt;td width=&quot;150&quot; style=&quot;border: 1px solid #d9d9d9&quot;&gt;&lt;p id=&quot;u6bd722d7&quot; class=&quot;ne-p&quot; style=&quot;margin: 0; padding: 0; min-height: 24px&quot;&gt;&lt;span class=&quot;ne-text&quot; style=&quot;font-size: 16px;&quot;&gt;1011&lt;/span&gt;&lt;/p&gt;&lt;/td&gt;&lt;td width=&quot;150&quot; style=&quot;border: 1px solid #d9d9d9&quot;&gt;&lt;p id=&quot;u3fa25dd1&quot; class=&quot;ne-p&quot; style=&quot;margin: 0; padding: 0; min-height: 24px&quot;&gt;&lt;span class=&quot;ne-text&quot; style=&quot;font-size: 16px;&quot;&gt;Light Cyan&lt;/span&gt;&lt;/p&gt;&lt;/td&gt;&lt;td width=&quot;150&quot; style=&quot;border: 1px solid #d9d9d9; background-color: rgb(85, 255, 255)&quot;&gt;&lt;/td&gt;&lt;/tr&gt;&lt;tr style=&quot;height: 33px&quot;&gt;&lt;td width=&quot;150&quot; style=&quot;border: 1px solid #d9d9d9&quot;&gt;&lt;p id=&quot;ub9c59f48&quot; class=&quot;ne-p&quot; style=&quot;margin: 0; padding: 0; min-height: 24px&quot;&gt;&lt;span class=&quot;ne-text&quot; style=&quot;font-size: 16px;&quot;&gt;12&lt;/span&gt;&lt;/p&gt;&lt;/td&gt;&lt;td width=&quot;150&quot; style=&quot;border: 1px solid #d9d9d9&quot;&gt;&lt;p id=&quot;uad534543&quot; class=&quot;ne-p&quot; style=&quot;margin: 0; padding: 0; min-height: 24px&quot;&gt;&lt;span class=&quot;ne-text&quot; style=&quot;font-size: 16px;&quot;&gt;C&lt;/span&gt;&lt;/p&gt;&lt;/td&gt;&lt;td width=&quot;150&quot; style=&quot;border: 1px solid #d9d9d9&quot;&gt;&lt;p id=&quot;u36760fea&quot; class=&quot;ne-p&quot; style=&quot;margin: 0; padding: 0; min-height: 24px&quot;&gt;&lt;span class=&quot;ne-text&quot; style=&quot;font-size: 16px;&quot;&gt;1100&lt;/span&gt;&lt;/p&gt;&lt;/td&gt;&lt;td width=&quot;150&quot; style=&quot;border: 1px solid #d9d9d9&quot;&gt;&lt;p id=&quot;uf44e7cc1&quot; class=&quot;ne-p&quot; style=&quot;margin: 0; padding: 0; min-height: 24px&quot;&gt;&lt;span class=&quot;ne-text&quot; style=&quot;font-size: 16px;&quot;&gt;Light Red&lt;/span&gt;&lt;/p&gt;&lt;/td&gt;&lt;td width=&quot;150&quot; style=&quot;border: 1px solid #d9d9d9; background-color: rgb(255, 85, 85)&quot;&gt;&lt;/td&gt;&lt;/tr&gt;&lt;tr style=&quot;height: 33px&quot;&gt;&lt;td width=&quot;150&quot; style=&quot;border: 1px solid #d9d9d9&quot;&gt;&lt;p id=&quot;ue3759519&quot; class=&quot;ne-p&quot; style=&quot;margin: 0; padding: 0; min-height: 24px&quot;&gt;&lt;span class=&quot;ne-text&quot; style=&quot;font-size: 16px;&quot;&gt;13&lt;/span&gt;&lt;/p&gt;&lt;/td&gt;&lt;td width=&quot;150&quot; style=&quot;border: 1px solid #d9d9d9&quot;&gt;&lt;p id=&quot;uc33cb34f&quot; class=&quot;ne-p&quot; style=&quot;margin: 0; padding: 0; min-height: 24px&quot;&gt;&lt;span class=&quot;ne-text&quot; style=&quot;font-size: 16px;&quot;&gt;D&lt;/span&gt;&lt;/p&gt;&lt;/td&gt;&lt;td width=&quot;150&quot; style=&quot;border: 1px solid #d9d9d9&quot;&gt;&lt;p id=&quot;ufc966dc2&quot; class=&quot;ne-p&quot; style=&quot;margin: 0; padding: 0; min-height: 24px&quot;&gt;&lt;span class=&quot;ne-text&quot; style=&quot;font-size: 16px;&quot;&gt;1101&lt;/span&gt;&lt;/p&gt;&lt;/td&gt;&lt;td width=&quot;150&quot; style=&quot;border: 1px solid #d9d9d9&quot;&gt;&lt;p id=&quot;u3ecbe196&quot; class=&quot;ne-p&quot; style=&quot;margin: 0; padding: 0; min-height: 24px&quot;&gt;&lt;span class=&quot;ne-text&quot; style=&quot;font-size: 16px;&quot;&gt;Light Magenta&lt;/span&gt;&lt;/p&gt;&lt;/td&gt;&lt;td width=&quot;150&quot; style=&quot;border: 1px solid #d9d9d9; background-color: rgb(255, 85, 255)&quot;&gt;&lt;/td&gt;&lt;/tr&gt;&lt;tr style=&quot;height: 33px&quot;&gt;&lt;td width=&quot;150&quot; style=&quot;border: 1px solid #d9d9d9&quot;&gt;&lt;p id=&quot;u41e05ff5&quot; class=&quot;ne-p&quot; style=&quot;margin: 0; padding: 0; min-height: 24px&quot;&gt;&lt;span class=&quot;ne-text&quot; style=&quot;font-size: 16px;&quot;&gt;14&lt;/span&gt;&lt;/p&gt;&lt;/td&gt;&lt;td width=&quot;150&quot; style=&quot;border: 1px solid #d9d9d9&quot;&gt;&lt;p id=&quot;uaf2bc1c5&quot; class=&quot;ne-p&quot; style=&quot;margin: 0; padding: 0; min-height: 24px&quot;&gt;&lt;span class=&quot;ne-text&quot; style=&quot;font-size: 16px;&quot;&gt;E&lt;/span&gt;&lt;/p&gt;&lt;/td&gt;&lt;td width=&quot;150&quot; style=&quot;border: 1px solid #d9d9d9&quot;&gt;&lt;p id=&quot;u005e58ed&quot; class=&quot;ne-p&quot; style=&quot;margin: 0; padding: 0; min-height: 24px&quot;&gt;&lt;span class=&quot;ne-text&quot; style=&quot;font-size: 16px;&quot;&gt;1110&lt;/span&gt;&lt;/p&gt;&lt;/td&gt;&lt;td width=&quot;150&quot; style=&quot;border: 1px solid #d9d9d9&quot;&gt;&lt;p id=&quot;u89898b82&quot; class=&quot;ne-p&quot; style=&quot;margin: 0; padding: 0; min-height: 24px&quot;&gt;&lt;span class=&quot;ne-text&quot; style=&quot;font-size: 16px;&quot;&gt;Yellow&lt;/span&gt;&lt;/p&gt;&lt;/td&gt;&lt;td width=&quot;150&quot; style=&quot;border: 1px solid #d9d9d9; background-color: rgb(255, 255, 85)&quot;&gt;&lt;/td&gt;&lt;/tr&gt;&lt;tr style=&quot;height: 33px&quot;&gt;&lt;td width=&quot;150&quot; style=&quot;border: 1px solid #d9d9d9&quot;&gt;&lt;p id=&quot;u9522cbe2&quot; class=&quot;ne-p&quot; style=&quot;margin: 0; padding: 0; min-height: 24px&quot;&gt;&lt;span class=&quot;ne-text&quot; style=&quot;font-size: 16px;&quot;&gt;15&lt;/span&gt;&lt;/p&gt;&lt;/td&gt;&lt;td width=&quot;150&quot; style=&quot;border: 1px solid #d9d9d9&quot;&gt;&lt;p id=&quot;u2d9992b9&quot; class=&quot;ne-p&quot; style=&quot;margin: 0; padding: 0; min-height: 24px&quot;&gt;&lt;span class=&quot;ne-text&quot; style=&quot;font-size: 16px;&quot;&gt;F&lt;/span&gt;&lt;/p&gt;&lt;/td&gt;&lt;td width=&quot;150&quot; style=&quot;border: 1px solid #d9d9d9&quot;&gt;&lt;p id=&quot;u02c0dde2&quot; class=&quot;ne-p&quot; style=&quot;margin: 0; padding: 0; min-height: 24px&quot;&gt;&lt;span class=&quot;ne-text&quot; style=&quot;font-size: 16px;&quot;&gt;1111&lt;/span&gt;&lt;/p&gt;&lt;/td&gt;&lt;td width=&quot;150&quot; style=&quot;border: 1px solid #d9d9d9&quot;&gt;&lt;p id=&quot;ue6406f44&quot; class=&quot;ne-p&quot; style=&quot;margin: 0; padding: 0; min-height: 24px&quot;&gt;&lt;span class=&quot;ne-text&quot; style=&quot;font-size: 16px;&quot;&gt;White&lt;/span&gt;&lt;/p&gt;&lt;/td&gt;&lt;td width=&quot;150&quot; style=&quot;border: 1px solid rgb(217, 217, 217); background-color: rgb(255, 255, 255);&quot;&gt;&lt;/td&gt;&lt;/tr&gt;&lt;/tbody&gt;&lt;/table&gt;&lt;/div&gt;" style="text;html=1;align=center;verticalAlign=middle;resizable=0;points=[];autosize=1;strokeColor=none;fillColor=none;fontColor=#FFFFFF;" parent="1" vertex="1">
          <mxGeometry x="20" y="230" width="790" height="580" as="geometry" />
        </mxCell>
        <mxCell id="dj3PNfdWHso2-Vq5DA1j-20" value="Foreground / Background Color" style="text;html=1;align=center;verticalAlign=middle;whiteSpace=wrap;rounded=0;fontColor=#FFFFFF;fontSize=24;" parent="1" vertex="1">
          <mxGeometry x="30" y="190" width="770" height="50" as="geometry" />
        </mxCell>
        <mxCell id="dj3PNfdWHso2-Vq5DA1j-1" value="Char" style="rounded=0;whiteSpace=wrap;html=1;strokeColor=#FFFFFF;fontColor=#FFFFFF;fillColor=#182E3E;" parent="1" vertex="1">
          <mxGeometry x="269" y="90" width="80" height="40" as="geometry" />
        </mxCell>
        <mxCell id="dj3PNfdWHso2-Vq5DA1j-2" value="Fg / Bg" style="rounded=0;whiteSpace=wrap;html=1;strokeColor=#FFFFFF;fontColor=#FFFFFF;fillColor=#182E3E;" parent="1" vertex="1">
          <mxGeometry x="349" y="90" width="140" height="40" as="geometry" />
        </mxCell>
        <mxCell id="dj3PNfdWHso2-Vq5DA1j-3" value="" style="shape=curlyBracket;whiteSpace=wrap;html=1;rounded=1;labelPosition=left;verticalLabelPosition=middle;align=right;verticalAlign=middle;strokeColor=#FFFFFF;fontColor=#FFFFFF;fillColor=#182E3E;rotation=90;" parent="1" vertex="1">
          <mxGeometry x="299" y="40" width="20" height="80" as="geometry" />
        </mxCell>
        <mxCell id="dj3PNfdWHso2-Vq5DA1j-4" value="" style="shape=curlyBracket;whiteSpace=wrap;html=1;rounded=1;labelPosition=left;verticalLabelPosition=middle;align=right;verticalAlign=middle;strokeColor=#FFFFFF;fontColor=#FFFFFF;fillColor=#182E3E;rotation=90;" parent="1" vertex="1">
          <mxGeometry x="419" width="20" height="160" as="geometry" />
        </mxCell>
        <mxCell id="dj3PNfdWHso2-Vq5DA1j-5" value="Char" style="text;html=1;align=center;verticalAlign=middle;whiteSpace=wrap;rounded=0;fontColor=#FFFFFF;" parent="1" vertex="1">
          <mxGeometry x="269" y="50" width="80" height="20" as="geometry" />
        </mxCell>
        <mxCell id="dj3PNfdWHso2-Vq5DA1j-6" value="Attr" style="text;html=1;align=center;verticalAlign=middle;whiteSpace=wrap;rounded=0;fontColor=#FFFFFF;" parent="1" vertex="1">
          <mxGeometry x="349" y="50" width="160" height="20" as="geometry" />
        </mxCell>
        <mxCell id="dj3PNfdWHso2-Vq5DA1j-8" value="" style="shape=curlyBracket;whiteSpace=wrap;html=1;rounded=1;labelPosition=left;verticalLabelPosition=middle;align=right;verticalAlign=middle;strokeColor=#FFFFFF;fontColor=#FFFFFF;fillColor=#182E3E;rotation=-90;" parent="1" vertex="1">
          <mxGeometry x="374" y="105" width="20" height="70" as="geometry" />
        </mxCell>
        <mxCell id="dj3PNfdWHso2-Vq5DA1j-9" value="" style="shape=curlyBracket;whiteSpace=wrap;html=1;rounded=1;labelPosition=left;verticalLabelPosition=middle;align=right;verticalAlign=middle;strokeColor=#FFFFFF;fontColor=#FFFFFF;fillColor=#182E3E;rotation=-90;" parent="1" vertex="1">
          <mxGeometry x="444" y="105" width="20" height="70" as="geometry" />
        </mxCell>
        <mxCell id="dj3PNfdWHso2-Vq5DA1j-10" value="Fg(4 bits)" style="text;html=1;align=center;verticalAlign=middle;whiteSpace=wrap;rounded=0;fontColor=#FFFFFF;" parent="1" vertex="1">
          <mxGeometry x="349" y="150" width="70" height="20" as="geometry" />
        </mxCell>
        <mxCell id="dj3PNfdWHso2-Vq5DA1j-11" value="Bg(3 bits)" style="text;html=1;align=center;verticalAlign=middle;whiteSpace=wrap;rounded=0;fontColor=#FFFFFF;" parent="1" vertex="1">
          <mxGeometry x="419" y="150" width="70" height="20" as="geometry" />
        </mxCell>
        <mxCell id="dj3PNfdWHso2-Vq5DA1j-12" value="" style="rounded=0;whiteSpace=wrap;html=1;strokeColor=#FFFFFF;fontColor=#FFFFFF;fillColor=#182E3E;" parent="1" vertex="1">
          <mxGeometry x="489" y="90" width="20" height="40" as="geometry" />
        </mxCell>
        <mxCell id="dj3PNfdWHso2-Vq5DA1j-15" value="" style="shape=curlyBracket;whiteSpace=wrap;html=1;rounded=1;labelPosition=left;verticalLabelPosition=middle;align=right;verticalAlign=middle;strokeColor=#FFFFFF;fontColor=#FFFFFF;fillColor=#182E3E;rotation=-180;size=0.5;" parent="1" vertex="1">
          <mxGeometry x="509" y="90" width="20" height="40" as="geometry" />
        </mxCell>
        <mxCell id="dj3PNfdWHso2-Vq5DA1j-16" value="Blink" style="text;html=1;align=center;verticalAlign=middle;whiteSpace=wrap;rounded=0;fontColor=#FFFFFF;" parent="1" vertex="1">
          <mxGeometry x="529" y="100" width="30" height="20" as="geometry" />
        </mxCell>
        <mxCell id="O_HpfhEJu6OGq8XDIs8N-1" value="" style="shape=curlyBracket;whiteSpace=wrap;html=1;rounded=1;labelPosition=left;verticalLabelPosition=middle;align=right;verticalAlign=middle;strokeColor=#FFFFFF;fontColor=#FFFFFF;fillColor=#182E3E;rotation=-90;" vertex="1" parent="1">
          <mxGeometry x="299" y="100.63" width="20" height="78.75" as="geometry" />
        </mxCell>
        <mxCell id="O_HpfhEJu6OGq8XDIs8N-2" value="Char(8 bits)" style="text;html=1;align=center;verticalAlign=middle;whiteSpace=wrap;rounded=0;fontColor=#FFFFFF;" vertex="1" parent="1">
          <mxGeometry x="270" y="150" width="79" height="20" as="geometry" />
        </mxCell>
        <mxCell id="O_HpfhEJu6OGq8XDIs8N-3" value="" style="shape=flexArrow;endArrow=classic;html=1;rounded=0;width=6;endSize=5.13;endWidth=13;" edge="1" parent="1">
          <mxGeometry width="50" height="50" relative="1" as="geometry">
            <mxPoint x="330" y="40" as="sourcePoint" />
            <mxPoint x="460" y="40" as="targetPoint" />
          </mxGeometry>
        </mxCell>
      </root>
    </mxGraphModel>
  </diagram>
</mxfile>
